<svg xmlns="http://www.w3.org/2000/svg" xmlns:svg="http://www.w3.org/2000/svg" id="svg9938" width="100" height="100" version="1.1" viewBox="0 0 100 100"><defs id="defs9940"><filter id="filter4153"><feGaussianBlur id="feGaussianBlur4155" stdDeviation="81.085"/></filter></defs><metadata id="metadata9943"/><g id="layer1" transform="translate(0,-952.36216)"><rect id="rect3152" width="5602.9" height="3419.3" x="-2512.5" y="56.332" transform="matrix(0.00841793,-0.00229602,0.00168885,0.00997826,31.200168,978.89149)" style="fill:#c8c4b7;filter:url(#filter4153)"/><rect id="rect3162" width="48.888" height="34.604" x="-154.268" y="956.343" transform="matrix(0.96475743,-0.26314084,0.16687925,0.98597734,0,0)" style="fill:#ffe680"/><g id="g3154" transform="matrix(0.03283881,0,0,0.03283881,23.331241,969.57478)"><circle id="path4171" cx="404.387" cy="393.142" r="123.435" transform="matrix(1.2585,-0.23001,0.21688,1.1867,-274.8,99.222)" style="fill:#ecca3e"/><circle id="path2164" cx="404.387" cy="393.142" r="123.435" transform="matrix(1.2585,-0.23001,0.21688,1.1867,-248.76,68.254)" style="fill:#d40000"/><path id="path2179" d="m 509.34,405.88 -152.09,27.81 -31.84,143.87 c 17.67,2.7 36.12,2.74 54.84,-0.68 84.38,-15.43 141.36,-91.54 129.09,-171 z" style="fill:#e00"/><path id="path2162" d="m 358.56,281.16 c -10.46,-0.11 -21.12,0.79 -31.84,2.75 -85.75,15.67 -143.34,94.01 -128.56,174.87 11.55,63.21 63.97,109.14 127.25,118.78 l 31.84,-143.87 152.09,-27.81 c -0.2,-1.3 -0.26,-2.59 -0.5,-3.88 C 495.91,331.25 431.83,281.89 358.56,281.16 Z" style="fill:red"/><path id="path2166" d="m 294.21,361.94 -11.42,8.44 -21.06,15.75 c -8.59,18.28 -7.39,37.67 -2.01,58.27 13.96,53.44 53.71,79.56 109.79,73.19 28.71,-3.26 55.01,-12.92 71.14,-33.43 L 469.9,447.48 294.21,361.94 Z" style="fill:#a00"/><circle id="path2160" cx="404.387" cy="393.142" r="123.435" transform="matrix(0.98371,-0.17978,0.16952,0.92756,-78.014,79.234)" style="fill:#d40000"/><circle id="path2174" cx="404.387" cy="393.142" r="123.435" transform="matrix(0.98371,-0.17978,0.16952,0.92756,-69.307,71.273)" style="fill:red"/></g><text style="font-style:normal;font-weight:400;font-size:40px;line-height:125%;font-family:sans-serif;text-align:center;letter-spacing:0;word-spacing:0;text-anchor:middle;fill:#000;fill-opacity:1;stroke:none;stroke-width:1px;stroke-linecap:butt;stroke-linejoin:miter;stroke-opacity:1" id="text10100" x="-258.301" y="961.302" transform="matrix(0.95534891,-0.29548005,0.29548005,0.95534891,0,0)" xml:space="preserve"><tspan id="tspan10102" x="-258.301" y="961.302" style="font-style:normal;font-variant:normal;font-weight:400;font-stretch:normal;font-size:10px;line-height:125%;font-family:'Hannotate TC';-inkscape-font-specification:'Hannotate TC, Normal';text-align:center;writing-mode:lr-tb;text-anchor:middle">gone to</tspan><tspan id="tspan10104" x="-258.301" y="973.802" style="font-style:normal;font-variant:normal;font-weight:400;font-stretch:normal;font-size:10px;line-height:125%;font-family:'Hannotate TC';-inkscape-font-specification:'Hannotate TC, Normal';text-align:center;writing-mode:lr-tb;text-anchor:middle">store</tspan></text></g></svg>